<?xml version="1.0" standalone="no"?>
<!DOCTYPE svg PUBLIC "-//W3C//DTD SVG 20010904//EN"
 "http://www.w3.org/TR/2001/REC-SVG-20010904/DTD/svg10.dtd">
<svg version="1.0" xmlns="http://www.w3.org/2000/svg"
 width="512.000000pt" height="512.000000pt" viewBox="0 0 512.000000 512.000000"
 preserveAspectRatio="xMidYMid meet">
<metadata>
Created by potrace 1.14, written by Peter Selinger 2001-2017
</metadata>
<g transform="translate(0.000000,512.000000) scale(0.100000,-0.100000)"
fill="#000000" stroke="none">
<path d="M1480 3524 c0 -37 -37 -98 -79 -132 -140 -112 -273 -103 -591 38
l-111 50 -51 -20 c-78 -29 -156 -86 -187 -135 -16 -25 -43 -85 -60 -134 -17
-50 -97 -269 -177 -488 l-147 -398 0 -120 c-1 -99 3 -131 22 -185 45 -129 118
-226 203 -272 42 -23 50 -23 373 -25 l330 -1 73 -108 c112 -166 236 -389 487
-884 127 -250 255 -494 284 -542 54 -92 118 -168 141 -168 7 0 29 17 49 38 65
68 129 278 176 572 14 91 29 183 33 205 l7 40 801 3 800 2 18 -142 c46 -379
129 -644 220 -703 23 -15 27 -15 58 0 163 79 414 764 552 1510 74 398 99 610
112 943 14 349 24 131 24 -531 0 -733 -1 -721 54 -764 40 -32 89 -37 140 -14
87 38 81 -19 81 791 0 775 -1 783 -56 892 -50 97 -108 159 -196 208 -37 20
-45 31 -59 79 -59 205 -211 352 -419 406 -52 13 -230 15 -1482 15 l-1423 0 0
-26z"/>
</g>
</svg>
